<svg viewBox="0 0 350.00000000000006 164.67985036295545"  xmlns:xlink="http://www.w3.org/2000/svg" xmlns="http://www.w3.org/2000/svg">
    <defs>
        <linearGradient id="svgRedGradient">
            <stop stop-color="#bf1922" offset="0"></stop>
            <stop stop-color="#bf1922" offset="1"></stop>
        </linearGradient>
    </defs>
    <g transform="matrix(1.5555555820465088,0,0,1.5555555820465088,97.22222222222223,-27.22353956434462)"
        fill="#bf1922">
        <g xmlns="http://www.w3.org/2000/svg">
            <path
                d="M32.333,65.361c8.958,1.709,15.884,6.871,15.884,6.871V24.876c0,0-6.965-5.167-15.939-6.884   c-9.089-1.738-20.957,1.695-20.957,1.695v47.36C11.32,67.047,23.226,63.617,32.333,65.361z">
            </path>
            <path
                d="M87.912,67.219V19.863c0,0-9.15-2.892-17.676-2.029v32.216l-6.393-6.502l-6.396,6.502V21.774   c-3.475,1.7-5.664,3.271-5.664,3.271V72.4c0,0,7.148-5.156,16.105-6.869C76.996,63.792,87.912,67.219,87.912,67.219z">
            </path>
            <path
                d="M91.412,23.99v48.136c0,0-13.762-3.849-23.992-1.893c-9.158,1.748-15.896,6.694-17.032,7.567v0.145   c0,0-0.033-0.023-0.097-0.072c-0.06,0.049-0.094,0.072-0.094,0.072v-0.145c-1.136-0.873-7.874-5.815-17.032-7.567   c-10.225-1.96-25.336,1.893-25.336,1.893V23.847C6.947,23.979,6.008,24.118,5,24.27v51.857c0,0,16.468-4.217,27.666-2.076   c11.02,2.107,17.671,8.449,17.671,8.449s6.654-6.342,17.671-8.449C79.211,71.907,95,76.127,95,76.127V24.496   C95,24.496,93.625,24.263,91.412,23.99z">
            </path>
        </g>
    </g>
    <g transform="matrix(1.5251343250274658,0,0,1.5251343250274658,-2.4402139583669253,103.1864356313031)"
        fill="url(#svgRedGradient)">
        <path
            d="M15.28 40 l-4.48 0 c-0.24 -0.72 -0.4 -1.16 -0.4 -3.44 l0 -4.4 c0 -2.6 -0.88 -3.56 -2.88 -3.56 l-1.52 0 l0 11.4 l-4.4 0 l0 -28 l6.64 0 c4.56 0 6.52 2.12 6.52 6.44 l0 2.2 c0 2.88 -0.92 4.72 -2.88 5.64 l0 0.08 c2.2 0.92 2.92 3 2.92 5.92 l0 4.32 c0 1.36 0.04 2.36 0.48 3.4 z M8.12 16 l-2.12 0 l0 8.6 l1.72 0 c1.64 0 2.64 -0.72 2.64 -2.96 l0 -2.76 c0 -2 -0.68 -2.88 -2.24 -2.88 z M26.048000000000002 18.44 l0 15.12 c0 2 0.88 2.76 2.28 2.76 s2.28 -0.76 2.28 -2.76 l0 -15.12 c0 -2 -0.88 -2.76 -2.28 -2.76 s-2.28 0.76 -2.28 2.76 z M21.648 33.28 l0 -14.56 c0 -4.48 2.36 -7.04 6.68 -7.04 s6.68 2.56 6.68 7.04 l0 14.56 c0 4.48 -2.36 7.04 -6.68 7.04 s-6.68 -2.56 -6.68 -7.04 z M45.696 40 l0 -9.28 l-5.56 -18.72 l4.6 0 l3.32 12.76 l0.08 0 l3.32 -12.76 l4.2 0 l-5.56 18.72 l0 9.28 l-4.4 0 z M69.544 12 l4.48 28 l-4.44 0 l-0.76 -5.08 l-5.4 0 l-0.76 5.08 l-4.04 0 l4.48 -28 l6.44 0 z M66.064 16.96 l-2.08 14.16 l4.24 0 l-2.08 -14.16 l-0.08 0 z M80.392 40 l0 -28 l4.4 0 l0 24 l7.24 0 l0 4 l-11.64 0 z M97.72000000000001 18.72 c0 -4.48 2.2 -7.04 6.48 -7.04 s6.48 2.56 6.48 7.04 l0 0.88 l-4.16 0 l0 -1.16 c0 -2 -0.8 -2.76 -2.2 -2.76 s-2.2 0.76 -2.2 2.76 c0 2.04 0.88 3.56 3.76 6.08 c3.68 3.24 4.84 5.56 4.84 8.76 c0 4.48 -2.24 7.04 -6.56 7.04 s-6.56 -2.56 -6.56 -7.04 l0 -1.72 l4.16 0 l0 2 c0 2 0.88 2.72 2.28 2.72 s2.28 -0.72 2.28 -2.72 c0 -2.04 -0.88 -3.56 -3.76 -6.08 c-3.68 -3.24 -4.84 -5.56 -4.84 -8.76 z M126.168 29.560000000000002 l4.16 0 l0 3.72 c0 4.48 -2.24 7.04 -6.56 7.04 s-6.56 -2.56 -6.56 -7.04 l0 -14.56 c0 -4.48 2.24 -7.04 6.56 -7.04 s6.56 2.56 6.56 7.04 l0 2.72 l-4.16 0 l0 -3 c0 -2 -0.88 -2.76 -2.28 -2.76 s-2.28 0.76 -2.28 2.76 l0 15.12 c0 2 0.88 2.72 2.28 2.72 s2.28 -0.72 2.28 -2.72 l0 -4 z M141.736 28 l0 12 l-4.4 0 l0 -28 l4.4 0 l0 12 l5 0 l0 -12 l4.48 0 l0 28 l-4.48 0 l0 -12 l-5 0 z M162.784 18.44 l0 15.12 c0 2 0.88 2.76 2.28 2.76 s2.28 -0.76 2.28 -2.76 l0 -15.12 c0 -2 -0.88 -2.76 -2.28 -2.76 s-2.28 0.76 -2.28 2.76 z M158.38400000000001 33.28 l0 -14.56 c0 -4.48 2.36 -7.04 6.68 -7.04 s6.68 2.56 6.68 7.04 l0 14.56 c0 4.48 -2.36 7.04 -6.68 7.04 s-6.68 -2.56 -6.68 -7.04 z M178.912 40 l0 -28 l4.4 0 l0 24 l7.24 0 l0 4 l-11.64 0 z M206.56 12 l4.48 28 l-4.44 0 l-0.76 -5.08 l-5.4 0 l-0.76 5.08 l-4.04 0 l4.48 -28 l6.44 0 z M203.08 16.96 l-2.08 14.16 l4.24 0 l-2.08 -14.16 l-0.08 0 z M231.08800000000002 40 l-4.48 0 c-0.24 -0.72 -0.4 -1.16 -0.4 -3.44 l0 -4.4 c0 -2.6 -0.88 -3.56 -2.88 -3.56 l-1.52 0 l0 11.4 l-4.4 0 l0 -28 l6.64 0 c4.56 0 6.52 2.12 6.52 6.44 l0 2.2 c0 2.88 -0.92 4.72 -2.88 5.64 l0 0.08 c2.2 0.92 2.92 3 2.92 5.92 l0 4.32 c0 1.36 0.04 2.36 0.48 3.4 z M223.92800000000003 16 l-2.12 0 l0 8.6 l1.72 0 c1.64 0 2.64 -0.72 2.64 -2.96 l0 -2.76 c0 -2 -0.68 -2.88 -2.24 -2.88 z">
        </path>
    </g>
</svg>