<svg width="140" height="101" viewBox="0 0 140 101" fill="none" xmlns="http://www.w3.org/2000/svg">
<g clip-path="url(#clip0_47_1213)">
<path d="M42.518 74.4491C56.4527 77.1076 67.2265 85.1374 67.2265 85.1374V11.4725C67.2265 11.4725 56.392 3.43491 42.4325 0.764016C28.294 -1.93954 9.83267 3.40068 9.83267 3.40068V77.0718C9.83267 77.0718 28.3516 71.7362 42.518 74.4491Z" fill="black"/>
<path d="M128.974 77.3394V3.67446C128.974 3.67446 114.741 -0.824206 101.478 0.518238V50.632L91.5336 40.5178L81.5842 50.632V6.64713C76.1787 9.29157 72.7736 11.7354 72.7736 11.7354V85.3987C72.7736 85.3987 83.8927 77.3782 97.8258 74.7136C111.994 72.0085 128.974 77.3394 128.974 77.3394Z" fill="black"/>
<path d="M134.419 10.0942V84.9725C134.419 84.9725 113.011 78.9851 97.0978 82.0278C82.852 84.7469 72.3707 92.4407 70.6036 93.7987V94.0242C70.6036 94.0242 70.5522 93.9885 70.4527 93.9122C70.3593 93.9885 70.3064 94.0242 70.3064 94.0242V93.7987C68.5393 92.4407 58.058 84.7531 43.8122 82.0278C27.9067 78.9789 4.40067 84.9725 4.40067 84.9725V9.8718C3.02867 10.0771 1.568 10.2934 0 10.5298V91.1962C0 91.1962 25.6169 84.6365 43.036 87.9669C60.1782 91.2445 70.5242 101.11 70.5242 101.11C70.5242 101.11 80.8749 91.2445 98.0125 87.9669C115.439 84.6318 140 91.1962 140 91.1962V10.8814C140 10.8814 137.861 10.5189 134.419 10.0942Z" fill="black"/>
</g>
<defs>
<clipPath id="clip0_47_1213">
<rect width="140" height="101" fill="white"/>
</clipPath>
</defs>
</svg>
