<svg width="425" height="55" viewBox="0 0 425 55" fill="none" xmlns="http://www.w3.org/2000/svg">
<g clip-path="url(#clip0_26_46)">
<path d="M23.1293 40.4577C30.7096 41.9024 36.5704 46.2659 36.5704 46.2659V6.23444C36.5704 6.23444 30.6766 1.86662 23.0827 0.415185C15.3916 -1.054 5.34885 1.84802 5.34885 1.84802V41.8829C5.34885 41.8829 15.4229 38.9834 23.1293 40.4577Z" fill="#004AAC"/>
<path d="M70.1606 42.0283V1.9968C70.1606 1.9968 62.4177 -0.447897 55.2031 0.281624V27.5148L49.7932 22.0184L44.3809 27.5148V3.61223C41.4403 5.04929 39.588 6.37731 39.588 6.37731V46.408C39.588 46.408 45.6367 42.0494 53.2161 40.6014C60.9234 39.1314 70.1606 42.0283 70.1606 42.0283Z" fill="#004AAC"/>
<path d="M73.1222 5.48549V46.1764C73.1222 46.1764 61.4767 42.9227 52.8201 44.5761C45.0706 46.0537 39.3688 50.2348 38.4075 50.9727V51.0953C38.4075 51.0953 38.3796 51.0759 38.3254 51.0345C38.2746 51.0759 38.2459 51.0953 38.2459 51.0953V50.9727C37.2846 50.2348 31.5829 46.0572 23.8333 44.5761C15.1809 42.9193 2.39391 46.1764 2.39391 46.1764V5.3646C1.64756 5.47619 0.852974 5.59368 0 5.72218V49.5585C0 49.5585 13.9353 45.9937 23.4111 47.8036C32.7363 49.5847 38.3644 54.9458 38.3644 54.9458C38.3644 54.9458 43.995 49.5847 53.3176 47.8036C62.7977 45.9912 76.1584 49.5585 76.1584 49.5585V5.91323C76.1584 5.91323 74.9948 5.71626 73.1222 5.48549Z" fill="#004AAC"/>
<path d="M106.94 47.4658H100.34C99.9861 46.4062 99.7504 45.7586 99.7504 42.4034V35.9282C99.7504 32.1021 98.4541 30.6893 95.5079 30.6893H93.2688V47.4658H86.7869V6.26039H96.5686C103.286 6.26039 106.174 9.38023 106.174 15.7376V18.9752C106.174 23.2135 104.819 25.9212 101.93 27.2752V27.3929C105.172 28.7468 106.233 31.8078 106.233 36.1049V42.4622C106.233 44.4636 106.292 45.9353 106.94 47.4658ZM96.3917 12.1469H93.2688V24.8028H95.8025C98.2185 24.8028 99.6915 23.7432 99.6915 20.4468V16.3852C99.6915 13.4419 98.6898 12.1469 96.3917 12.1469ZM122.802 15.7376V37.9885C122.802 40.9318 124.099 42.0502 126.161 42.0502C128.223 42.0502 129.52 40.9318 129.52 37.9885V15.7376C129.52 12.7944 128.223 11.6759 126.161 11.6759C124.099 11.6759 122.802 12.7944 122.802 15.7376ZM116.321 37.5765V16.1496C116.321 9.55682 119.797 5.78947 126.161 5.78947C132.525 5.78947 136.002 9.55682 136.002 16.1496V37.5765C136.002 44.1693 132.525 47.9366 126.161 47.9366C119.797 47.9366 116.321 44.1693 116.321 37.5765ZM151.746 47.4658V33.8091L143.556 6.26039H150.332L155.224 25.0383H155.341L160.232 6.26039H166.419L158.228 33.8091V47.4658H151.746ZM186.878 6.26039L193.477 47.4658H186.937L185.818 39.9899H177.863L176.743 47.4658H170.791L177.391 6.26039H186.878ZM181.751 13.5596L178.687 34.3978H184.934L181.869 13.5596H181.751ZM202.858 47.4658V6.26039H209.341V41.5793H220.006V47.4658H202.858ZM228.385 16.1496C228.385 9.55682 231.626 5.78947 237.931 5.78947C244.236 5.78947 247.478 9.55682 247.478 16.1496V17.4447H241.349V15.7376C241.349 12.7944 240.17 11.6759 238.108 11.6759C236.046 11.6759 234.867 12.7944 234.867 15.7376C234.867 18.7398 236.164 20.9766 240.406 24.6851C245.827 29.4532 247.536 32.8673 247.536 37.5765C247.536 44.1693 244.236 47.9366 237.873 47.9366C231.508 47.9366 228.209 44.1693 228.209 37.5765V35.0453H234.336V37.9885C234.336 40.9318 235.634 41.9913 237.696 41.9913C239.758 41.9913 241.054 40.9318 241.054 37.9885C241.054 34.9865 239.758 32.7496 235.515 29.0411C230.094 24.273 228.385 20.8589 228.385 16.1496ZM270.293 32.1021H276.421V37.5765C276.421 44.1693 273.121 47.9366 266.758 47.9366C260.394 47.9366 257.094 44.1693 257.094 37.5765V16.1496C257.094 9.55682 260.394 5.78947 266.758 5.78947C273.121 5.78947 276.421 9.55682 276.421 16.1496V20.1525H270.293V15.7376C270.293 12.7944 268.997 11.6759 266.935 11.6759C264.872 11.6759 263.575 12.7944 263.575 15.7376V37.9885C263.575 40.9318 264.872 41.9913 266.935 41.9913C268.997 41.9913 270.293 40.9318 270.293 37.9885V32.1021ZM293.227 29.8063V47.4658H286.746V6.26039H293.227V23.9199H300.593V6.26039H307.192V47.4658H300.593V29.8063H293.227ZM324.233 15.7376V37.9885C324.233 40.9318 325.53 42.0502 327.592 42.0502C329.655 42.0502 330.951 40.9318 330.951 37.9885V15.7376C330.951 12.7944 329.655 11.6759 327.592 11.6759C325.53 11.6759 324.233 12.7944 324.233 15.7376ZM317.752 37.5765V16.1496C317.752 9.55682 321.229 5.78947 327.592 5.78947C333.956 5.78947 337.433 9.55682 337.433 16.1496V37.5765C337.433 44.1693 333.956 47.9366 327.592 47.9366C321.229 47.9366 317.752 44.1693 317.752 37.5765ZM347.993 47.4658V6.26039H354.474V41.5793H365.14V47.4658H347.993ZM388.721 6.26039L395.321 47.4658H388.78L387.661 39.9899H379.707L378.586 47.4658H372.635L379.235 6.26039H388.721ZM383.595 13.5596L380.531 34.3978H386.777L383.713 13.5596H383.595ZM424.855 47.4658H418.255C417.902 46.4062 417.666 45.7586 417.666 42.4034V35.9282C417.666 32.1021 416.37 30.6893 413.424 30.6893H411.185V47.4658H404.702V6.26039H414.484C421.202 6.26039 424.089 9.38023 424.089 15.7376V18.9752C424.089 23.2135 422.734 25.9212 419.846 27.2752V27.3929C423.088 28.7468 424.148 31.8078 424.148 36.1049V42.4622C424.148 44.4636 424.207 45.9353 424.855 47.4658ZM414.307 12.1469H411.185V24.8028H413.718C416.134 24.8028 417.607 23.7432 417.607 20.4468V16.3852C417.607 13.4419 416.605 12.1469 414.307 12.1469Z" fill="#004AAC"/>
</g>
<defs>
<clipPath id="clip0_26_46">
<rect width="425" height="55" fill="white"/>
</clipPath>
</defs>
</svg>
