<svg width="350" height="165" viewBox="0 0 350 165" fill="none" xmlns="http://www.w3.org/2000/svg">
<g clip-path="url(#clip0_26_24)">
<path d="M147.518 74.4491C161.453 77.1076 172.226 85.1374 172.226 85.1374V11.4725C172.226 11.4725 161.392 3.43491 147.432 0.764016C133.294 -1.93954 114.833 3.40068 114.833 3.40068V77.0718C114.833 77.0718 133.352 71.7362 147.518 74.4491Z" fill="#004AAC"/>
<path d="M233.974 77.3394V3.67446C233.974 3.67446 219.741 -0.824206 206.478 0.518238V50.632L196.534 40.5178L186.584 50.632V6.64713C181.179 9.29157 177.774 11.7354 177.774 11.7354V85.3987C177.774 85.3987 188.893 77.3782 202.826 74.7136C216.994 72.0085 233.974 77.3394 233.974 77.3394Z" fill="#004AAC"/>
<path d="M239.419 10.0942V84.9725C239.419 84.9725 218.011 78.9851 202.098 82.0278C187.852 84.7469 177.371 92.4407 175.604 93.7987V94.0242C175.604 94.0242 175.552 93.9885 175.453 93.9122C175.359 93.9885 175.306 94.0242 175.306 94.0242V93.7987C173.539 92.4407 163.058 84.7531 148.812 82.0278C132.907 78.9789 109.401 84.9725 109.401 84.9725V9.8718C108.029 10.0771 106.568 10.2934 105 10.5298V91.1962C105 91.1962 130.617 84.6365 148.036 87.9669C165.178 91.2445 175.524 101.11 175.524 101.11C175.524 101.11 185.875 91.2445 203.012 87.9669C220.439 84.6318 245 91.1962 245 91.1962V10.8814C245 10.8814 242.861 10.5189 239.419 10.0942Z" fill="#004AAC"/>
<path d="M20.8638 164.192H14.0312C13.6652 163.094 13.4212 162.423 13.4212 158.945V152.235C13.4212 148.269 12.0791 146.805 9.0288 146.805H6.71059V164.192H0V121.488H10.1269C17.0815 121.488 20.0708 124.721 20.0708 131.31V134.665C20.0708 139.058 18.6676 141.864 15.6784 143.267V143.389C19.0337 144.792 20.1318 147.964 20.1318 152.418V159.006C20.1318 161.081 20.1928 162.606 20.8638 164.192ZM9.94388 127.589H6.71059V140.705H9.33382C11.835 140.705 13.3602 139.607 13.3602 136.19V131.981C13.3602 128.931 12.3231 127.589 9.94388 127.589ZM37.2865 131.31V154.37C37.2865 157.42 38.6286 158.579 40.7638 158.579C42.899 158.579 44.2411 157.42 44.2411 154.37V131.31C44.2411 128.26 42.899 127.101 40.7638 127.101C38.6286 127.101 37.2865 128.26 37.2865 131.31ZM30.5759 153.943V131.737C30.5759 124.904 34.1752 121 40.7638 121C47.3524 121 50.9517 124.904 50.9517 131.737V153.943C50.9517 160.776 47.3524 164.68 40.7638 164.68C34.1752 164.68 30.5759 160.776 30.5759 153.943ZM67.2523 164.192V150.039L58.7726 121.488H65.7882L70.8516 140.949H70.9737L76.0371 121.488H82.4427L73.9629 150.039V164.192H67.2523ZM103.624 121.488L110.456 164.192H103.685L102.526 156.444H94.2899L93.1308 164.192H86.9693L93.8019 121.488H103.624ZM98.3163 129.053L95.144 150.649H101.611L98.4383 129.053H98.3163ZM120.168 164.192V121.488H126.879V158.091H137.921V164.192H120.168ZM146.596 131.737C146.596 124.904 149.951 121 156.479 121C163.006 121 166.362 124.904 166.362 131.737V133.079H160.017V131.31C160.017 128.26 158.797 127.101 156.662 127.101C154.527 127.101 153.307 128.26 153.307 131.31C153.307 134.421 154.649 136.739 159.041 140.583C164.653 145.524 166.423 149.062 166.423 153.943C166.423 160.776 163.006 164.68 156.418 164.68C149.829 164.68 146.413 160.776 146.413 153.943V151.32H152.757V154.37C152.757 157.42 154.1 158.518 156.235 158.518C158.37 158.518 159.712 157.42 159.712 154.37C159.712 151.259 158.37 148.94 153.978 145.097C148.365 140.156 146.596 136.617 146.596 131.737ZM189.983 148.269H196.327V153.943C196.327 160.776 192.911 164.68 186.323 164.68C179.734 164.68 176.318 160.776 176.318 153.943V131.737C176.318 124.904 179.734 121 186.323 121C192.911 121 196.327 124.904 196.327 131.737V135.885H189.983V131.31C189.983 128.26 188.641 127.101 186.506 127.101C184.37 127.101 183.028 128.26 183.028 131.31V154.37C183.028 157.42 184.37 158.518 186.506 158.518C188.641 158.518 189.983 157.42 189.983 154.37V148.269ZM213.726 145.89V164.192H207.016V121.488H213.726V139.79H221.352V121.488H228.184V164.192H221.352V145.89H213.726ZM245.827 131.31V154.37C245.827 157.42 247.169 158.579 249.305 158.579C251.44 158.579 252.782 157.42 252.782 154.37V131.31C252.782 128.26 251.44 127.101 249.305 127.101C247.169 127.101 245.827 128.26 245.827 131.31ZM239.117 153.943V131.737C239.117 124.904 242.716 121 249.305 121C255.893 121 259.492 124.904 259.492 131.737V153.943C259.492 160.776 255.893 164.68 249.305 164.68C242.716 164.68 239.117 160.776 239.117 153.943ZM270.425 164.192V121.488H277.135V158.091H288.177V164.192H270.425ZM312.592 121.488L319.424 164.192H312.653L311.493 156.444H303.258L302.099 164.192H295.937L302.77 121.488H312.592ZM307.284 129.053L304.112 150.649H310.578L307.406 129.053H307.284ZM350 164.192H343.167C342.801 163.094 342.557 162.423 342.557 158.945V152.235C342.557 148.269 341.215 146.805 338.165 146.805H335.847V164.192H329.136V121.488H339.263C346.218 121.488 349.207 124.721 349.207 131.31V134.665C349.207 139.058 347.804 141.864 344.815 143.267V143.389C348.17 144.792 349.268 147.964 349.268 152.418V159.006C349.268 161.081 349.329 162.606 350 164.192ZM339.08 127.589H335.847V140.705H338.47C340.971 140.705 342.496 139.607 342.496 136.19V131.981C342.496 128.931 341.459 127.589 339.08 127.589Z" fill="url(#paint0_linear_26_24)"/>
</g>
<defs>
<linearGradient id="paint0_linear_26_24" x1="0" y1="121" x2="350" y2="121" gradientUnits="userSpaceOnUse">
<stop stop-color="#003882"/>
<stop offset="1" stop-color="#005BD4"/>
</linearGradient>
<clipPath id="clip0_26_24">
<rect width="350" height="164.68" fill="white"/>
</clipPath>
</defs>
</svg>
