<svg width="300" height="216" viewBox="0 0 300 216" fill="none" xmlns="http://www.w3.org/2000/svg">
<g clip-path="url(#clip0_26_32)">
<path d="M91.7053 159.218C121.565 164.903 144.652 182.076 144.652 182.076V24.5352C144.652 24.5352 121.435 7.34594 91.5219 1.63394C61.2253 -4.14793 21.6653 7.27275 21.6653 7.27275V164.827C21.6653 164.827 61.3486 153.416 91.7053 159.218Z" fill="#004AAC"/>
<path d="M276.969 165.399V7.85825C276.969 7.85825 246.469 -1.76266 218.049 1.10831V108.282L196.739 86.6519L175.419 108.282V14.2156C163.835 19.8711 156.539 25.0974 156.539 25.0974V182.635C156.539 182.635 180.365 165.482 210.222 159.783C240.582 153.998 276.969 165.399 276.969 165.399Z" fill="#004AAC"/>
<path d="M288.635 21.5877V181.723C288.635 181.723 242.762 168.919 208.662 175.426C178.135 181.241 155.675 197.695 151.889 200.599V201.082C151.889 201.082 151.779 201.005 151.565 200.842C151.365 201.005 151.252 201.082 151.252 201.082V200.599C147.465 197.695 125.005 181.254 94.4786 175.426C60.3952 168.905 10.0252 181.723 10.0252 181.723V21.112C7.08525 21.5511 3.95525 22.0135 0.595245 22.5192V195.034C0.595245 195.034 55.4886 181.005 92.8152 188.127C129.549 195.137 151.719 216.235 151.719 216.235C151.719 216.235 173.899 195.137 210.622 188.127C247.965 180.995 300.595 195.034 300.595 195.034V23.271C300.595 23.271 296.012 22.4959 288.635 21.5877Z" fill="#004AAC"/>
</g>
<defs>
<clipPath id="clip0_26_32">
<rect width="300" height="216" fill="white"/>
</clipPath>
</defs>
</svg>
