<svg width="300" height="300" viewBox="0 0 300 300" fill="none" xmlns="http://www.w3.org/2000/svg">
<path d="M91.11 201.218C120.97 206.903 144.057 224.076 144.057 224.076V66.5352C144.057 66.5352 120.84 49.3459 90.9267 43.6339C60.63 37.8521 21.07 49.2727 21.07 49.2727V206.827C21.07 206.827 60.7533 195.416 91.11 201.218Z" fill="#004AAC"/>
<path d="M276.373 207.399V49.8583C276.373 49.8583 245.873 40.2373 217.453 43.1083V150.282L196.143 128.652L174.823 150.282V56.2156C163.24 61.8711 155.943 67.0974 155.943 67.0974V224.635C155.943 224.635 179.77 207.482 209.627 201.783C239.987 195.998 276.373 207.399 276.373 207.399Z" fill="#004AAC"/>
<path d="M288.04 63.5877V223.723C288.04 223.723 242.167 210.919 208.067 217.426C177.54 223.241 155.08 239.695 151.293 242.599V243.082C151.293 243.082 151.183 243.005 150.97 242.842C150.77 243.005 150.657 243.082 150.657 243.082V242.599C146.87 239.695 124.41 223.254 93.8833 217.426C59.8 210.905 9.43 223.723 9.43 223.723V63.112C6.49 63.5511 3.36 64.0135 0 64.5192V237.034C0 237.034 54.8933 223.005 92.22 230.127C128.953 237.137 151.123 258.235 151.123 258.235C151.123 258.235 173.303 237.137 210.027 230.127C247.37 222.995 300 237.034 300 237.034V65.271C300 65.271 295.417 64.4959 288.04 63.5877Z" fill="#004AAC"/>
</svg>
