<svg width="440" height="57" viewBox="0 0 440 57" fill="none" xmlns="http://www.w3.org/2000/svg">
<g clip-path="url(#clip0_19_30)">
<path d="M23.9456 41.9289C31.7935 43.4261 37.8611 47.9483 37.8611 47.9483V6.46115C37.8611 6.46115 31.7593 1.9345 23.8974 0.430285C15.9348 -1.09233 5.53763 1.91522 5.53763 1.91522V43.4059C5.53763 43.4059 15.9672 40.401 23.9456 41.9289Z" fill="#0050B8"/>
<path d="M72.6368 43.5566V2.06941C72.6368 2.06941 64.6207 -0.464183 57.1514 0.291866V28.5153L51.5506 22.8191L45.9473 28.5153V3.74358C42.9029 5.2329 40.9852 6.60921 40.9852 6.60921V48.0955C40.9852 48.0955 47.2474 43.5785 55.0943 42.0778C63.0736 40.5543 72.6368 43.5566 72.6368 43.5566Z" fill="#0050B8"/>
<path d="M75.703 5.68496V47.8555C75.703 47.8555 63.6465 44.4835 54.6843 46.1971C46.6613 47.7284 40.7583 52.0615 39.7631 52.8263V52.9533C39.7631 52.9533 39.7342 52.9332 39.6781 52.8903C39.6255 52.9332 39.5958 52.9533 39.5958 52.9533V52.8263C38.6005 52.0615 32.6976 47.732 24.6745 46.1971C15.7167 44.48 2.4784 47.8555 2.4784 47.8555V5.55968C1.70571 5.67532 0.883079 5.79709 0 5.93026V51.3606C0 51.3606 14.4271 47.6662 24.2374 49.5419C33.8917 51.3878 39.7184 56.9438 39.7184 56.9438C39.7184 56.9438 45.5478 51.3878 55.1994 49.5419C65.0141 47.6636 78.8463 51.3606 78.8463 51.3606V6.12825C78.8463 6.12825 77.6417 5.92412 75.703 5.68496Z" fill="#0050B8"/>
<path d="M110.714 49.1918H103.881C103.515 48.0937 103.271 47.4226 103.271 43.9453V37.2347C103.271 33.2694 101.929 31.8053 98.8788 31.8053H96.5606V49.1918H89.85V6.48804H99.9769C106.931 6.48804 109.921 9.72133 109.921 16.3099V19.6652C109.921 24.0576 108.518 26.8638 105.528 28.267V28.389C108.884 29.7921 109.982 32.9644 109.982 37.4178V44.0063C109.982 46.0805 110.043 47.6057 110.714 49.1918ZM99.7938 12.5886H96.5606V25.7047H99.1838C101.685 25.7047 103.21 24.6066 103.21 21.1903V16.981C103.21 13.9307 102.173 12.5886 99.7938 12.5886ZM127.136 16.3099V39.3699C127.136 42.4202 128.479 43.5793 130.614 43.5793C132.749 43.5793 134.091 42.4202 134.091 39.3699V16.3099C134.091 13.2596 132.749 12.1005 130.614 12.1005C128.479 12.1005 127.136 13.2596 127.136 16.3099ZM120.426 38.9429V16.7369C120.426 9.90434 124.025 6 130.614 6C137.202 6 140.802 9.90434 140.802 16.7369V38.9429C140.802 45.7755 137.202 49.6798 130.614 49.6798C124.025 49.6798 120.426 45.7755 120.426 38.9429ZM157.102 49.1918V35.0385L148.623 6.48804H155.638L160.702 25.9488H160.824L165.887 6.48804H172.293L163.813 35.0385V49.1918H157.102ZM193.474 6.48804L200.306 49.1918H193.535L192.376 41.4441H184.14L182.981 49.1918H176.819L183.652 6.48804H193.474ZM188.166 14.0527L184.994 35.6486H191.461L188.288 14.0527H188.166ZM210.018 49.1918V6.48804H216.729V43.0913H227.771V49.1918H210.018ZM236.446 16.7369C236.446 9.90434 239.801 6 246.329 6C252.856 6 256.212 9.90434 256.212 16.7369V18.0791H249.867V16.3099C249.867 13.2596 248.647 12.1005 246.512 12.1005C244.377 12.1005 243.156 13.2596 243.156 16.3099C243.156 19.4212 244.499 21.7394 248.891 25.5827C254.503 30.5242 256.273 34.0625 256.273 38.9429C256.273 45.7755 252.856 49.6798 246.268 49.6798C239.679 49.6798 236.263 45.7755 236.263 38.9429V36.3197H242.607V39.3699C242.607 42.4202 243.95 43.5183 246.085 43.5183C248.22 43.5183 249.562 42.4202 249.562 39.3699C249.562 36.2587 248.22 33.9405 243.827 30.0971C238.215 25.1557 236.446 21.6174 236.446 16.7369ZM279.833 33.2694H286.177V38.9429C286.177 45.7755 282.761 49.6798 276.173 49.6798C269.584 49.6798 266.168 45.7755 266.168 38.9429V16.7369C266.168 9.90434 269.584 6 276.173 6C282.761 6 286.177 9.90434 286.177 16.7369V20.8853H279.833V16.3099C279.833 13.2596 278.491 12.1005 276.356 12.1005C274.22 12.1005 272.878 13.2596 272.878 16.3099V39.3699C272.878 42.4202 274.22 43.5183 276.356 43.5183C278.491 43.5183 279.833 42.4202 279.833 39.3699V33.2694ZM303.576 30.8902V49.1918H296.866V6.48804H303.576V24.7897H311.202V6.48804H318.034V49.1918H311.202V30.8902H303.576ZM335.677 16.3099V39.3699C335.677 42.4202 337.019 43.5793 339.154 43.5793C341.29 43.5793 342.632 42.4202 342.632 39.3699V16.3099C342.632 13.2596 341.29 12.1005 339.154 12.1005C337.019 12.1005 335.677 13.2596 335.677 16.3099ZM328.967 38.9429V16.7369C328.967 9.90434 332.566 6 339.154 6C345.743 6 349.342 9.90434 349.342 16.7369V38.9429C349.342 45.7755 345.743 49.6798 339.154 49.6798C332.566 49.6798 328.967 45.7755 328.967 38.9429ZM360.275 49.1918V6.48804H366.985V43.0913H378.027V49.1918H360.275ZM402.441 6.48804L409.274 49.1918H402.502L401.343 41.4441H393.108L391.948 49.1918H385.787L392.62 6.48804H402.441ZM397.134 14.0527L393.962 35.6486H400.428L397.256 14.0527H397.134ZM439.85 49.1918H433.017C432.651 48.0937 432.407 47.4226 432.407 43.9453V37.2347C432.407 33.2694 431.065 31.8053 428.015 31.8053H425.697V49.1918H418.986V6.48804H429.113C436.068 6.48804 439.057 9.72133 439.057 16.3099V19.6652C439.057 24.0576 437.654 26.8638 434.664 28.267V28.389C438.02 29.7921 439.118 32.9644 439.118 37.4178V44.0063C439.118 46.0805 439.179 47.6057 439.85 49.1918ZM428.93 12.5886H425.697V25.7047H428.32C430.821 25.7047 432.346 24.6066 432.346 21.1903V16.981C432.346 13.9307 431.309 12.5886 428.93 12.5886Z" fill="#0050B8"/>
</g>
<defs>
<clipPath id="clip0_19_30">
<rect width="440" height="57" fill="white"/>
</clipPath>
</defs>
</svg>
